# xmcd
#
# Track frame offsets: 
#        150
#        25050
#        49099
#        70324
#        96379
#        120467
#        143642
#        163805
#        186369
#        215295
#        237345
#        263282
#
# Disc length: 3697 seconds
#
# Revision: 0
# Processed by: cddbd v1.5.2PL0 Copyright (c) Steve Scherf et al.
# Submitted via: ExactAudioCopy v0.95a5
#
DISCID=a40e6f0c
DTITLE=Godyva - In Good And Evil
DYEAR=2006
DGENRE=Gothic Metal
TTITLE0=Dreams of a Child
TTITLE1=Lovable Sin
TTITLE2=In Good and Evil
TTITLE3=Soul Desert
TTITLE4=Intimate
TTITLE5=Flame Flower
TTITLE6=Purified
TTITLE7=Cold
TTITLE8=Aisthetis
TTITLE9=Light At Last!
TTITLE10=Broken Angel
TTITLE11=Blue Shadows
EXTD=
EXTT0=
EXTT1=
EXTT2=
EXTT3=
EXTT4=
EXTT5=
EXTT6=
EXTT7=
EXTT8=
EXTT9=
EXTT10=
EXTT11=
PLAYORDER=
